PathFileType	3	(X/Y/Z)	D:\Jess\Healthy\Labelled\HA28\20251211\SRRun01.trc
DataRate	CameraRate	NumFrames	NumMarkers	Units	OrigDataRate	OrigDataStartFrame	OrigNumFrames
250.0	250.0	6	37	mm	250.0	37188	2501
Frame#	Time	C7			T10			CLAV			LSHO			RSHO			LASIS			RASIS			LPSIS			RPSIS			LILCR			RILCR			LGTR			LTHI			LLTHI			LLEP			LMEP			LPSH			LLSH			LDSH			LLMAL			LMMAL			LTOE			L5TH			LHEE			RGTR			RTHI			RLTHI			RLEP			RMEP			RPSH			RLSH			RDSH			RLMAL			RMMAL			RTOE			R5TH			RHEE			
		X1	Y1	Z1	X2	Y2	Z2	X3	Y3	Z3	X4	Y4	Z4	X5	Y5	Z5	X6	Y6	Z6	X7	Y7	Z7	X8	Y8	Z8	X9	Y9	Z9	X10	Y10	Z10	X11	Y11	Z11	X12	Y12	Z12	X13	Y13	Z13	X14	Y14	Z14	X15	Y15	Z15	X16	Y16	Z16	X17	Y17	Z17	X18	Y18	Z18	X19	Y19	Z19	X20	Y20	Z20	X21	Y21	Z21	X22	Y22	Z22	X23	Y23	Z23	X24	Y24	Z24	X25	Y25	Z25	X26	Y26	Z26	X27	Y27	Z27	X28	Y28	Z28	X29	Y29	Z29	X30	Y30	Z30	X31	Y31	Z31	X32	Y32	Z32	X33	Y33	Z33	X34	Y34	Z34	X35	Y35	Z35	X36	Y36	Z36	X37	Y37	Z37	

2189	148.748	775.728789851965	1445.109670592466	-627.9278089862275	771.852765902139	1200.290707341666	-520.3747717104079	810.0003839115174	1359.026703195923	-758.3384986796464	646.742661839686	1421.106510200286	-718.9679161039282	937.7372162310451	1435.097613623264	-656.6550971267163	689.2753821748033	947.0171199050678	-711.4478054439917	908.868543972722	987.2874938291824	-708.0756179266398	779.4577178376229	1023.791977146911	-548.7203768462091	819.9570760517474	1027.01452124425	-547.4031575840839	658.3933365337465	1027.244231992814	-665.6370201938805	936.3899374630369	1053.967306904525	-649.7614283700036	627.5192967245625	872.1030107946842	-611.3822732445593	723.4271255304701	701.8537580004785	-650.6010681971688	667.6003716828944	664.0105295154798	-515.8657211729102	687.6233263674432	536.9598570853913	-451.6765326937877	nan	nan	nan	746.9106255399931	437.4312065719397	-441.9962769040495	678.7423897792087	402.6443926963185	-315.8882442086788	745.1936415702594	291.176458875203	-303.8131565383868	712.9192682903464	237.0374650580467	-200.3108980203286	nan	nan	nan	740.3033170379439	105.5926248881092	-206.6811400328598	711.5449663815039	128.5225018544743	-166.7067871743484	756.7387474550561	299.5957961838654	-147.0717659604895	988.7246864751313	908.8125798394175	-665.0128284182185	903.3696382542432	784.4329697155524	-774.1015485435368	949.2385062219092	653.7292194271781	-729.3597553116457	922.7438862527307	521.8346484895006	-763.6136322248575	nan	nan	nan	874.4491708761911	468.4632670830918	-831.5420410842765	925.876247725825	360.1150242586552	-779.0783316435787	872.4475020581021	265.5784042593623	-860.6477598687134	881.1435514876886	156.7049050790905	-832.3842910097118	nan	nan	nan	881.379715016743	101.6795653151215	-963.4066895695922	899.8692830979275	70.68260707307255	-918.5692363658306	819.3441806089322	134.7566413945773	-768.9470337230431	
2190	148.752	775.9157783745669	1444.240444477025	-628.1815347775893	771.7394842318661	1199.434145360044	-520.560485654211	810.5685918950443	1358.224158821692	-758.4959975226735	647.1138758029383	1419.950772454909	-719.8264162686127	938.0934580068187	1433.872524258481	-656.3242216126888	688.9391891146624	946.6449243471844	-712.0261039076534	908.5558995975859	986.5742006534408	-708.7811871303334	779.2110010478336	1022.990144052984	-549.2438567543926	819.7136534802187	1026.224483921082	-547.9500589514046	658.2310778199762	1026.655132193661	-665.9096232520121	936.2651872332228	1053.156066347831	-650.3660373449142	627.2220402508973	871.2892352052572	-612.2498033522653	723.3567790316018	701.3257122044403	-652.4032150102551	667.6349733400311	662.3122624444101	-518.0253572544459	687.8174424382159	535.3105095142186	-454.1331944787991	nan	nan	nan	746.9384429059102	435.9501741889468	-442.2196008110303	678.1866596905589	403.7992515182161	-315.7272630050926	744.3684183298873	292.7264916716901	-301.0670040032064	711.4590857358235	240.6654528491989	-196.6473930706534	nan	nan	nan	738.5923875874172	109.3225177811038	-201.0035653732885	709.6548533737281	132.796545605771	-161.4500014622182	755.1944566836812	303.9480543335441	-144.2010372103829	988.2271757596501	907.3102770463461	-665.8460558448877	902.5213768261481	781.4766601458149	-774.0790735321369	948.9015765093343	651.7642820538498	-729.6461674988758	921.9351102009944	520.6933776220524	-764.2642458547172	nan	nan	nan	872.837768607433	467.9591493153524	-831.895307855171	925.3104110782848	359.378906540221	-781.3551982364878	871.0924390347246	265.4880236582123	-863.1560527590434	880.2348180385701	156.2801878502157	-836.0835520995546	nan	nan	nan	878.9409033353083	101.2030778259495	-967.1425594604289	898.0128868802486	70.18944273071504	-922.5757551379098	819.2547035869401	134.269501362008	-772.0077936721301	
2191	148.756	776.1272447469283	1443.228925166547	-628.387953594225	771.6740098157616	1198.434262372344	-520.7077375989118	811.1004713466533	1357.241297530449	-758.6248089487553	647.4540009012696	1418.619168780045	-720.608696250588	938.4622633783657	1432.476536263194	-656.0101028127873	688.5861005829618	946.1946325112926	-712.6023832952392	908.2817459315701	985.7454711513074	-709.5094726093921	778.9924846776242	1021.969604342846	-549.7581665008686	819.5012035894147	1025.213439540817	-548.4944880313382	658.0406309067253	1025.950059715407	-666.1298899052349	936.147662660033	1052.176158470748	-650.9185197652588	626.913704399657	870.3244234837979	-613.1377751269691	723.2571753020059	700.6899877245008	-654.3274936667381	667.6653866783943	660.4090293521773	-520.3257164672839	687.9796173374956	533.4842336721906	-456.7483461039511	nan	nan	nan	746.9223975231814	434.3027844141834	-442.6345157181709	677.6631420296667	404.9088585772934	-315.7294085719686	743.4508467324279	294.2150678215023	-298.5168982141846	709.926200893947	244.2819958576129	-193.2036128342844	nan	nan	nan	736.7320169297136	113.0694696575537	-195.5705734968756	707.6269338936652	137.0854166329359	-156.4432782442415	753.6242194599254	308.2582757340324	-141.5485294384896	987.6920449259301	905.5453449822675	-666.6601119858339	901.6501284705432	778.470227515639	-774.1316017127392	948.4911426593428	649.7051997980501	-730.1832206348978	921.1717980249161	519.4750434033145	-765.0522390391617	nan	nan	nan	871.2120207693656	467.2492220485212	-832.2170383694324	924.8156078276537	358.5330810284146	-783.5033595949304	869.7604439082453	265.0938915602134	-865.2225378213982	879.4031324043598	155.6321913723452	-839.1151758916718	nan	nan	nan	876.5294371324054	100.2592229841856	-970.0615665094887	896.2147643031681	69.3480294425061	-925.7026054480326	819.2682174810143	133.6964986614686	-774.3324966139711	
2192	148.76	776.365192413911	1442.071640368736	-628.5438265058444	771.6537584474485	1197.285458561314	-520.8203251631103	811.5969273208277	1356.079784500042	-758.7255657918794	647.7648805914774	1417.116277530235	-721.3075447966023	938.8440962816941	1430.910341853772	-655.7143827026254	688.2221314751793	945.6546013625169	-713.178335391328	908.0496961086386	984.7997289057894	-710.2619343121373	778.8022430573359	1020.729798745768	-550.2666946924265	819.3198675488394	1023.978345956124	-549.0391471360168	657.8227383873807	1025.121134158486	-666.3044916311177	936.0383627389745	1051.022030031519	-651.416408877623	626.5967684741427	869.2070093756124	-614.046596538204	723.1256068575876	699.936093022402	-656.3529461389124	667.6824454239745	658.3179276803087	-522.7401624480317	688.0946997200001	531.499576900381	-459.5004177323746	nan	nan	nan	746.8393731233987	432.4979971459794	-443.2474028910231	677.1682956439861	405.9811818239467	-315.898698628237	742.4331791899742	295.6397325561365	-296.1789369325741	708.3263429267063	247.8850445437619	-189.9946020090656	nan	nan	nan	734.7178710544417	116.8170633203523	-190.3934304892129	705.4714280650113	141.3839693175605	-151.6926176562621	752.0450719150343	312.5270409124727	-139.1398683964232	987.1260976848865	903.5346968854082	-667.4600189784641	900.7484741186835	775.4583082364974	-774.2809509967294	947.9948026112623	647.5731200462126	-730.9742345646838	920.4541868023149	518.1676758708516	-765.9624843073624	nan	nan	nan	869.5874614956778	466.3139008133991	-832.5021483519823	924.3867210546982	357.5509310995443	-785.5037040814061	868.4555459664635	264.3680946900964	-866.8314330945319	878.6518201255891	154.7353884191947	-841.4545064869652	nan	nan	nan	874.1535578669345	98.8549874881121	-972.1548921565504	894.4851750132259	68.15972605239445	-927.9425345196648	819.3843578770279	133.0034203737883	-775.8981709781231	
2193	148.764	776.6313747528284	1440.765163595564	-628.6461708299391	771.6767755698737	1195.981449913473	-520.90234577008	812.058823453487	1354.741553827774	-758.799337236056	648.0479105972314	1415.446764276716	-721.9155388512789	939.2398375687928	1429.174765827683	-655.4390298611518	687.8529921081673	945.012322442435	-713.7551909502267	907.8627063321766	983.7333505636701	-711.0396819828326	778.6407449782873	1019.270199660631	-550.7718683208695	819.1702655723818	1022.516550797209	-549.5857494102884	657.5791687213407	1024.16027653575	-666.440182909303	935.9393109242458	1049.687134596764	-651.8599978741297	626.2740980873108	867.9349005085788	-614.9756277056204	722.9579547186177	699.0525883960057	-658.4588781949578	667.6766126786472	656.0552156632505	-525.241419800263	688.1475095366728	529.3727614587009	-462.3704742414523	nan	nan	nan	746.6652166823494	430.5422624394452	-444.0637346810664	676.6961082512837	407.0217353283654	-316.2399345746593	741.3096646795153	296.9974681446727	-294.0666707043379	706.6669743973762	251.4728404379213	-187.0323252801201	nan	nan	nan	732.5482081244809	120.5519800528337	-185.4827612016097	703.1999986873697	145.6878928659403	-147.2037845499224	750.4750654424759	316.75268551695	-136.9959839538253	986.5374423160222	901.2963449310213	-668.2523180793249	899.8088204161853	772.4810213105661	-774.5478048911796	947.403680687517	645.3866714638965	-732.0166099031692	919.7810058760581	516.7579183159211	-766.9773251476618	nan	nan	nan	867.9795689689082	465.1339027717628	-832.7441686944823	924.0160947419635	356.4077892707531	-787.3321551390993	867.1800127802157	263.2881772621098	-867.963585642245	877.9811328107326	153.5713368724169	-843.0731933940081	nan	nan	nan	871.8229517303296	97.01287007621914	-973.4126808912082	892.8349838401095	66.63873810370723	-929.2894191359618	819.597937528438	132.1572276978232	-776.6805130719356	
2194	148.768	776.9272635607458	1439.306363913293	-628.6923654844676	771.7417514812258	1194.515557354072	-520.9580576979879	812.4868972583611	1353.228838852773	-758.8476066891687	648.3039221045814	1413.615444970565	-722.4252475018616	939.6508152954931	1427.270906569902	-655.1863595121965	687.484003860415	944.2547972221022	-714.3337668434584	907.7229839944398	982.5410634225765	-711.8431852718898	778.5089284121378	1017.590261268402	-551.2750058784941	819.0535529682672	1020.825934502758	-550.1348093214233	657.312728895278	1023.059515603553	-666.5437568843848	935.8534067863332	1048.164566500661	-652.2523441549787	625.9489729454194	866.5055196212469	-615.9231835384877	722.7486784277467	698.0275105911716	-660.6254219492851	667.6382409162069	653.6357827163274	-527.8024432372116	688.1231140874984	527.1173611158061	-465.3423059292185	nan	nan	nan	746.3754169744412	428.4397947095909	-445.0874301827978	676.2384306405455	408.0334583547388	-316.7582210144162	740.0766752927432	298.2849256757808	-292.1909679066958	704.9571756386987	255.0438569955637	-184.3258592529845	nan	nan	nan	730.223916600798	124.2641270687122	-180.848707096132	700.825428976829	149.9936701592663	-142.9825852072497	748.9329586926809	320.9312722628296	-135.133109104289	985.9352786458303	898.8489892712751	-669.0447630729789	898.8239938019691	769.5725797774448	-774.9506252082124	946.7128370881206	643.1615530638653	-733.3015505198259	919.1492135826045	515.2319011108808	-768.0770498548918	nan	nan	nan	866.4027524965818	463.6913358038026	-832.9353431375549	923.6935764672695	355.0821178883087	-788.9601301378231	865.9339942910093	261.8381442466523	-868.596851801362	877.3879679348339	152.1294452457284	-843.9398003694648	nan	nan	nan	869.548516221575	94.77048921129507	-973.8242385997859	891.2752423710181	64.8117277973068	-929.7384738266015	819.8987464911555	131.1269012540424	-776.6545711172172	
